# xmcd
#
# Track frame offsets:
#	150
#	16522
#	28642
#	41222
#	53932
#	67862
#	84556
#	94582
#	106702
#	124382
#	141757
#	154531
#	168524
#	184617
#	201776
#	212775
#	227984
#	240562
#	256333
#	272709
#
# Disc length: 3870 seconds
#
# Revision: 1
# Processed by: cddbd v1.5.2PL0 Copyright (c) Steve Scherf et al.
# Submitted via: audiograbber 1.83.01
#
DISCID=0b0f1c14
DTITLE=Diversen - Hollandse Nieuwe Kerst
DYEAR=1900
DGENRE=
TTITLE0=Rene Schuurmans - Ik kom naar huis vannacht
TTITLE1=Helemaal Hollands - De winter
TTITLE2=Jannes - Deze kerst ben je bij mij
TTITLE3=Marianne Weber - Gloria in Excelsis Deo
TTITLE4=Andre Hazes - Eenzame kerst
TTITLE5=De Hollandse Kerststerren - Een vrolijk kerstfeest
TTITLE6=Goldfinger - Kling klokje klingelingeling
TTITLE7=Helemaal Hollands - Vier jij daarboven ook het kerstfeest
TTITLE8=Helemaal Hollands - Hoog aan de hemel
TTITLE9=Frank Verkooijen - 't Voelt zo goed met kerstmis
TTITLE10=De Gouden Trompetten - Winter Wonderland
TTITLE11=Koos Alberts - Waarom ben ik met kerstmis zo alleen
TTITLE12=Frans Bauer - Ik droom van een kerstfeest
TTITLE13=Henk Wijngaard - Stille nacht, heilige nacht
TTITLE14=Marianne Weber - Hoe leit dit kindeke
TTITLE15=Henk Wijngaard - 't Is weer kerst
TTITLE16=Marianne Weber - Ik droom van 'n heel mooi kerstfeest
TTITLE17=De Havenzangers - Kerst in Nederland
TTITLE18=Robert Halewijn - Dit kerstfeest
TTITLE19=Corry and de Rekels - Hoog daar aan de hemel
EXTD=
EXTT0=
EXTT1=
EXTT2=
EXTT3=
EXTT4=
EXTT5=
EXTT6=
EXTT7=
EXTT8=
EXTT9=
EXTT10=
EXTT11=
EXTT12=
EXTT13=
EXTT14=
EXTT15=
EXTT16=
EXTT17=
EXTT18=
EXTT19=
PLAYORDER=
